<svg width="20" height="20" viewBox="0 0 20 20" fill="none" xmlns="http://www.w3.org/2000/svg">
<path d="M20 10C20 15.5714 15.5714 20 10 20C4.42857 20 0 15.5714 0 10C0 4.42857 4.42857 0 10 0C15.5714 0 20 4.42857 20 10Z" fill="#666666"/>
<path d="M6.57144 14.7144C6.28572 14.7144 6.00001 14.5715 5.85715 14.4287C5.42858 14.0001 5.42858 13.2858 5.85715 12.8572L12.8571 5.71437C13.2857 5.2858 14 5.2858 14.4286 5.71437C14.8571 6.14294 14.8571 6.85723 14.4286 7.2858L7.28572 14.2858C7.14286 14.5715 6.85715 14.7144 6.57144 14.7144Z" fill="white"/>
<path d="M13.5714 14.7144C13.2857 14.7144 13 14.5715 12.8571 14.4287L5.85715 7.2858C5.42858 6.85723 5.42858 6.14294 5.85715 5.71437C6.28572 5.2858 7.00001 5.2858 7.42858 5.71437L14.4286 12.7144C14.8571 13.1429 14.8571 13.8572 14.4286 14.2858C14.1429 14.5715 13.8571 14.7144 13.5714 14.7144Z" fill="white"/>
</svg>
