<svg width="15" height="14" viewBox="0 0 15 14" fill="none" xmlns="http://www.w3.org/2000/svg">
<path d="M15.0007 0H5.38174L9.31674 4.65V7.432C9.31674 7.915 9.70874 8.306 10.1907 8.306C10.6727 8.306 11.0647 7.914 11.0647 7.432V4.65L15.0007 0Z" fill="#262626"/>
<path d="M8.34075 8.569C8.19675 8.425 8.00775 8.353 7.81875 8.353C7.62975 8.353 7.44075 8.425 7.29675 8.569L5.03075 10.832V5.247C5.03075 4.84 4.70075 4.509 4.29175 4.509C3.88275 4.509 3.55175 4.84 3.55175 5.247V10.854L1.26175 8.569C0.97275 8.281 0.50575 8.281 0.21675 8.569C-0.07225 8.857 -0.07225 9.324 0.21675 9.612L4.27875 13.667L8.34075 9.612C8.62975 9.325 8.62975 8.858 8.34075 8.569Z" fill="#333333"/>
</svg>
