<svg width="15" height="14" viewBox="0 0 15 14" fill="none" xmlns="http://www.w3.org/2000/svg">
<path d="M15.0005 0H5.19049L9.20349 4.743V7.581C9.20349 8.073 9.60349 8.473 10.0955 8.473C10.5875 8.473 10.9875 8.073 10.9875 7.581V4.743L15.0005 0Z" fill="#262626"/>
<path d="M8.2585 8.607L4.2365 4.586L0.2145 8.608C-0.0715 8.894 -0.0715 9.356 0.2145 9.643C0.5005 9.93 0.9625 9.929 1.2495 9.643L3.5165 7.376V12.937C3.5165 13.341 3.8435 13.669 4.2485 13.669C4.6535 13.669 4.9805 13.341 4.9805 12.937V7.398L7.2245 9.642C7.3675 9.785 7.5545 9.856 7.7415 9.856C7.9285 9.856 8.1165 9.784 8.2585 9.642C8.5445 9.356 8.5445 8.893 8.2585 8.607Z" fill="#333333"/>
</svg>
