<svg width="27" height="27" viewBox="0 0 27 27" fill="none" xmlns="http://www.w3.org/2000/svg">
<path d="M2.50017 20.0002C1.70017 20.0002 1.00017 19.3002 1.00017 18.5002V2.50018C0.500237 1.50018 1.5 0.5 2.50017 1.00018H12.3002L16.0002 4.70018V18.5002C16.0002 19.3002 15.3002 20.0002 14.5002 20.0002H2.50017Z" fill="white"/>
<path d="M11.6 1L15 4.4V18C15 18.6 14.6 19 14 19H2C1.4 19 1 18.6 1 18V2C1 1.4 1.4 1 2 1H11.6ZM12 0H2C0.9 0 0 0.9 0 2V18C0 19.1 0.9 20 2 20H14C15.1 20 16 19.1 16 18V4L12 0Z" fill="#363636"/>
<path d="M5.50017 23.0002C4.70017 23.0002 4.00017 22.3002 4.00017 21.5002V5.50018C3.50024 4.50018 4.5 3.5 5.50017 4.00018H15.3002L19.0002 7.70018V21.5002C19.0002 22.3002 18.3002 23.0002 17.5002 23.0002H5.50017Z" fill="white"/>
<path d="M14.6 4L18 7.4V21C18 21.6 17.6 22 17 22H5C4.4 22 4 21.6 4 21V5C4 4.4 4.4 4 5 4H14.6ZM15 3H5C3.9 3 3 3.9 3 5V21C3 22.1 3.9 23 5 23H17C18.1 23 19 22.1 19 21V7L15 3Z" fill="#363636"/>
<path d="M19 26.5C14.9 26.5 11.5 23.1 11.5 19C11.5 14.9 14.9 11.5 19 11.5C23.1 11.5 26.5 14.9 26.5 19C26.5 23.1 23.1 26.5 19 26.5Z" fill="#363636"/>
<path d="M23.0909 19.909H14.9091C14.4091 19.909 14 19.4999 14 18.9999C14 18.4999 14.4091 18.0908 14.9091 18.0908H23.0909C23.5909 18.0908 24 18.4999 24 18.9999C24 19.4999 23.5909 19.909 23.0909 19.909Z" fill="white"/>
<path d="M18.9999 24C18.4999 24 18.0908 23.5909 18.0908 23.0909V14.9091C18.0908 14.4091 18.4999 14 18.9999 14C19.4999 14 19.909 14.4091 19.909 14.9091V23.0909C19.909 23.5909 19.4999 24 18.9999 24Z" fill="white"/>
<path d="M19 12C22.9 12 26 15.1 26 19C26 22.9 22.9 26 19 26C15.1 26 12 22.9 12 19C12 15.1 15.1 12 19 12ZM19 11C14.6 11 11 14.6 11 19C11 23.4 14.6 27 19 27C23.4 27 27 23.4 27 19C27 14.6 23.4 11 19 11Z" fill="white"/>
<path d="M18 13H6V14H18V13Z" fill="#363636"/>
<path d="M13 7H6V8H13V7Z" fill="#363636"/>
<path d="M18 16H6V17H18V16Z" fill="#363636"/>
<path d="M15.4 10H6V11H15.4V10Z" fill="#363636"/>
</svg>
