<svg width="24" height="22" viewBox="0 0 24 22" fill="none" xmlns="http://www.w3.org/2000/svg">
<path d="M3.1699 21.0317C1.88552 21.0317 0.76169 20.5501 0.280048 19.5868C-0.201594 18.784 -0.0410466 17.6602 0.601143 16.5364L9.43124 1.76602C10.0734 0.642189 11.0367 0 12 0C12.9633 0 13.9266 0.642189 14.5688 1.76602L23.3989 16.5364C24.041 17.6602 24.2016 18.6235 23.72 19.5868C23.2383 20.3895 22.1145 21.0317 20.8301 21.0317H3.1699Z" fill="#DF3324"/>
<path d="M12.0002 18.6234C12.7095 18.6234 13.2846 18.0484 13.2846 17.3391C13.2846 16.6297 12.7095 16.0547 12.0002 16.0547C11.2909 16.0547 10.7158 16.6297 10.7158 17.3391C10.7158 18.0484 11.2909 18.6234 12.0002 18.6234Z" fill="white"/>
<path d="M10.7158 13.8071V5.29805C10.7158 4.65586 11.1975 4.01367 12.0002 4.01367C12.6424 4.01367 13.124 4.49531 13.124 5.29805V13.8071C13.124 14.4492 12.6424 15.0914 12.0002 15.0914C11.358 14.9309 10.7158 14.4492 10.7158 13.8071Z" fill="white"/>
</svg>
