<svg width="20" height="18" viewBox="0 0 20 18" fill="none" xmlns="http://www.w3.org/2000/svg">
<path d="M3.37742 16.7738C2.41414 16.7738 1.57127 16.4125 1.21004 15.6901C0.848805 15.088 0.969215 14.2452 1.45086 13.4023L8.07343 2.32452C8.55507 1.48164 9.27754 1 10 1C10.7225 1 11.4449 1.48164 11.9266 2.32452L18.5491 13.4023C19.0308 14.2452 19.1512 14.9676 18.79 15.6901C18.4287 16.2921 17.5859 16.7738 16.6226 16.7738H3.37742Z" stroke="#DF3324" stroke-miterlimit="10"/>
<path d="M10 14.9676C10.532 14.9676 10.9633 14.5363 10.9633 14.0043C10.9633 13.4723 10.532 13.041 10 13.041C9.46802 13.041 9.03674 13.4723 9.03674 14.0043C9.03674 14.5363 9.46802 14.9676 10 14.9676Z" fill="#DF3324"/>
<path d="M9.03674 11.3553V4.97354C9.03674 4.4919 9.39797 4.01025 10 4.01025C10.4817 4.01025 10.8429 4.37149 10.8429 4.97354V11.3553C10.8429 11.8369 10.4817 12.3186 10 12.3186C9.51839 12.1982 9.03674 11.8369 9.03674 11.3553Z" fill="#DF3324"/>
</svg>
