<svg id="Layer_1" data-name="Layer 1" xmlns="http://www.w3.org/2000/svg" width="21.5" height="21.5" viewBox="0 0 21.5 21.5">
  <title>config_action</title>
  <g>
    <circle cx="10.75" cy="10.75" r="10" fill="#f9f9f9"/>
    <path d="M12,23.021a10.75,10.75,0,1,1,10.75-10.75A10.762,10.762,0,0,1,12,23.021Zm0-20a9.25,9.25,0,1,0,9.25,9.25A9.26,9.26,0,0,0,12,3.021Z" transform="translate(-1.25 -1.521)" fill="#3f4950"/>
  </g>
  <path d="M17.48,13.19a.92.92,0,0,0,0-1.839H16.5a4.565,4.565,0,0,0-.676-1.6l.7-.7a.92.92,0,0,0-1.3-1.3l-.714.713A4.572,4.572,0,0,0,12.919,7.8V6.79a.92.92,0,0,0-1.839,0V7.8a4.553,4.553,0,0,0-1.591.656l-.714-.714a.92.92,0,0,0-1.3,1.3l.7.705a4.583,4.583,0,0,0-.676,1.6H6.519a.92.92,0,1,0,0,1.839h.968a4.594,4.594,0,0,0,.662,1.63l-.675.675a.92.92,0,0,0,1.3,1.3l.666-.666a4.575,4.575,0,0,0,1.639.685v.936a.92.92,0,1,0,1.839,0v-.936a4.575,4.575,0,0,0,1.639-.685l.666.666a.92.92,0,0,0,1.3-1.3l-.676-.675a4.532,4.532,0,0,0,.662-1.63ZM12,15.068a2.759,2.759,0,1,1,2.759-2.759A2.763,2.763,0,0,1,12,15.068Z" transform="translate(-1.25 -1.521)" fill="#333"/>
</svg>
