<svg width="20" height="20" viewBox="0 0 20 20" fill="none" xmlns="http://www.w3.org/2000/svg">
<path fill-rule="evenodd" clip-rule="evenodd" d="M4.11612 4.11612C4.60428 3.62796 5.39573 3.62796 5.88389 4.11612L10 8.23223L14.1161 4.11612C14.6043 3.62797 15.3957 3.62797 15.8839 4.11612C16.372 4.60428 16.372 5.39573 15.8839 5.88389L11.7678 10L15.8839 14.1161C16.372 14.6043 16.372 15.3957 15.8839 15.8839C15.3957 16.372 14.6043 16.372 14.1161 15.8839L10 11.7678L5.88388 15.8839C5.39573 16.372 4.60427 16.372 4.11612 15.8839C3.62796 15.3957 3.62796 14.6043 4.11612 14.1161L8.23224 10L4.11612 5.88388C3.62797 5.39573 3.62797 4.60427 4.11612 4.11612Z" fill="#333333"/>
</svg>
