<svg width="32" height="32" viewBox="0 0 32 32" fill="none" xmlns="http://www.w3.org/2000/svg">
<path d="M20.7654 21.4604L17.5064 18.2069C19.3687 15.6506 18.8449 12.0485 16.2843 10.1313C13.7237 8.21407 10.0574 8.79505 8.13692 11.4095C6.21645 14.0239 6.79841 17.5678 9.35903 19.4851C10.3484 20.1822 11.5705 20.5889 12.7926 20.5889C14.0147 20.5889 15.2368 20.1822 16.2261 19.4851L19.4851 22.7386C19.8343 23.0871 20.358 23.0871 20.7072 22.7386C21.0564 22.39 21.1146 21.809 20.7654 21.4604ZM12.7926 18.7879C10.5811 18.7879 8.77707 16.9869 8.77707 14.7791C8.77707 12.5714 10.5811 10.7704 12.7926 10.7704C15.004 10.7704 16.8081 12.5714 16.8081 14.7791C16.8081 16.9869 15.004 18.7879 12.7926 18.7879Z" fill="white"/>
<mask id="mask0_203_2051" style="mask-type:alpha" maskUnits="userSpaceOnUse" x="19" y="15" width="6" height="6">
<path d="M25 15H19V21H25V15Z" fill="white"/>
<path fill-rule="evenodd" clip-rule="evenodd" d="M21.775 20.025C21.775 20.16 21.865 20.25 22 20.25C22.135 20.25 22.225 20.16 22.225 20.025V18.225H24.025C24.16 18.225 24.25 18.135 24.25 18C24.25 17.865 24.16 17.775 24.025 17.775H22.225V15.975C22.225 15.84 22.135 15.75 22 15.75C21.865 15.75 21.775 15.84 21.775 15.975V17.775H19.975C19.84 17.775 19.75 17.865 19.75 18C19.75 18.135 19.84 18.225 19.975 18.225H21.775V20.025Z" fill="#333333"/>
</mask>
<g mask="url(#mask0_203_2051)">
<path d="M22.225 18.225V17.85H21.85V18.225H22.225ZM22.225 17.775H21.85V18.15H22.225V17.775ZM21.775 17.775V18.15H22.15V17.775H21.775ZM21.775 18.225H22.15V17.85H21.775V18.225ZM22 19.875C22.0177 19.875 22.0617 19.8826 22.1021 19.9229C22.1424 19.9633 22.15 20.0073 22.15 20.025H21.4C21.4 20.1777 21.4526 20.3341 21.5717 20.4533C21.6908 20.5724 21.8473 20.625 22 20.625V19.875ZM21.85 20.025C21.85 20.0073 21.8576 19.9633 21.8979 19.9229C21.9383 19.8826 21.9823 19.875 22 19.875V20.625C22.1527 20.625 22.3092 20.5724 22.4283 20.4533C22.5474 20.3341 22.6 20.1777 22.6 20.025H21.85ZM21.85 18.225V20.025H22.6V18.225H21.85ZM24.025 17.85H22.225V18.6H24.025V17.85ZM23.875 18C23.875 17.9823 23.8826 17.9383 23.9229 17.8979C23.9633 17.8576 24.0073 17.85 24.025 17.85V18.6C24.1777 18.6 24.3341 18.5474 24.4533 18.4283C24.5724 18.3092 24.625 18.1527 24.625 18H23.875ZM24.025 18.15C24.0073 18.15 23.9633 18.1424 23.9229 18.1021C23.8826 18.0617 23.875 18.0177 23.875 18H24.625C24.625 17.8473 24.5724 17.6908 24.4533 17.5717C24.3341 17.4526 24.1777 17.4 24.025 17.4V18.15ZM22.225 18.15H24.025V17.4H22.225V18.15ZM21.85 15.975V17.775H22.6V15.975H21.85ZM22 16.125C21.9823 16.125 21.9383 16.1174 21.8979 16.0771C21.8576 16.0367 21.85 15.9927 21.85 15.975H22.6C22.6 15.8223 22.5474 15.6659 22.4283 15.5467C22.3092 15.4276 22.1527 15.375 22 15.375V16.125ZM22.15 15.975C22.15 15.9927 22.1424 16.0367 22.1021 16.0771C22.0617 16.1174 22.0177 16.125 22 16.125V15.375C21.8473 15.375 21.6908 15.4276 21.5717 15.5467C21.4526 15.6659 21.4 15.8223 21.4 15.975H22.15ZM22.15 17.775V15.975H21.4V17.775H22.15ZM19.975 18.15H21.775V17.4H19.975V18.15ZM20.125 18C20.125 18.0177 20.1174 18.0617 20.0771 18.1021C20.0367 18.1424 19.9927 18.15 19.975 18.15V17.4C19.8223 17.4 19.6659 17.4526 19.5467 17.5717C19.4276 17.6908 19.375 17.8473 19.375 18H20.125ZM19.975 17.85C19.9927 17.85 20.0367 17.8576 20.0771 17.8979C20.1174 17.9383 20.125 17.9823 20.125 18H19.375C19.375 18.1527 19.4276 18.3092 19.5467 18.4283C19.6659 18.5474 19.8223 18.6 19.975 18.6V17.85ZM21.775 17.85H19.975V18.6H21.775V17.85ZM22.15 20.025V18.225H21.4V20.025H22.15Z" fill="white"/>
</g>
</svg>
