<svg width="20" height="20" viewBox="0 0 20 20" fill="none" xmlns="http://www.w3.org/2000/svg">
<path fill-rule="evenodd" clip-rule="evenodd" d="M8.9 4.225C8.9 3.61749 9.39249 3.125 10 3.125C10.6075 3.125 11.1 3.61749 11.1 4.225V8.9H15.775C16.3825 8.9 16.875 9.39249 16.875 10C16.875 10.6075 16.3825 11.1 15.775 11.1H11.1V15.775C11.1 16.3825 10.6075 16.875 10 16.875C9.39249 16.875 8.9 16.3825 8.9 15.775V11.1H4.225C3.61749 11.1 3.125 10.6075 3.125 10C3.125 9.39249 3.61749 8.9 4.225 8.9H8.9V4.225Z" fill="#333333"/>
<path d="M11.1 8.9H10.95V9.05H11.1V8.9ZM11.1 11.1V10.95H10.95V11.1H11.1ZM8.9 11.1H9.05V10.95H8.9V11.1ZM8.9 8.9V9.05H9.05V8.9H8.9ZM10 2.975C9.30964 2.975 8.75 3.53464 8.75 4.225H9.05C9.05 3.70033 9.47533 3.275 10 3.275V2.975ZM11.25 4.225C11.25 3.53464 10.6904 2.975 10 2.975V3.275C10.5247 3.275 10.95 3.70033 10.95 4.225H11.25ZM11.25 8.9V4.225H10.95V8.9H11.25ZM15.775 8.75H11.1V9.05H15.775V8.75ZM17.025 10C17.025 9.30964 16.4654 8.75 15.775 8.75V9.05C16.2997 9.05 16.725 9.47533 16.725 10H17.025ZM15.775 11.25C16.4654 11.25 17.025 10.6904 17.025 10H16.725C16.725 10.5247 16.2997 10.95 15.775 10.95V11.25ZM11.1 11.25H15.775V10.95H11.1V11.25ZM11.25 15.775V11.1H10.95V15.775H11.25ZM10 17.025C10.6904 17.025 11.25 16.4654 11.25 15.775H10.95C10.95 16.2997 10.5247 16.725 10 16.725V17.025ZM8.75 15.775C8.75 16.4654 9.30964 17.025 10 17.025V16.725C9.47533 16.725 9.05 16.2997 9.05 15.775H8.75ZM8.75 11.1V15.775H9.05V11.1H8.75ZM4.225 11.25H8.9V10.95H4.225V11.25ZM2.975 10C2.975 10.6904 3.53464 11.25 4.225 11.25V10.95C3.70033 10.95 3.275 10.5247 3.275 10H2.975ZM4.225 8.75C3.53464 8.75 2.975 9.30964 2.975 10H3.275C3.275 9.47533 3.70033 9.05 4.225 9.05V8.75ZM8.9 8.75H4.225V9.05H8.9V8.75ZM8.75 4.225V8.9H9.05V4.225H8.75Z" fill="#333333"/>
</svg>
