<svg width="32" height="32" viewBox="0 0 32 32" fill="none" xmlns="http://www.w3.org/2000/svg">
<path d="M23.6015 11.646L17.6365 18.671V22.266C17.6365 23.082 17.0846 23.843 16.2796 23.978C15.2576 24.15 14.3635 23.357 14.3635 22.365V18.672L8.39846 11.647C7.84646 10.997 8.30854 10 9.16054 10H22.8385C23.6915 9.999 24.1535 10.997 23.6015 11.646Z" fill="#FFFFFF"/>
<mask id="path-2-outside-1_30_148" maskUnits="userSpaceOnUse" x="19" y="16.5" width="8" height="8" fill="white">
<rect fill="white" x="19" y="16.5" width="8" height="8"/>
<path fill-rule="evenodd" clip-rule="evenodd" d="M22.7 23.2C22.7 23.38 22.82 23.5 23 23.5C23.18 23.5 23.3 23.38 23.3 23.2V20.8H25.7C25.88 20.8 26 20.68 26 20.5C26 20.32 25.88 20.2 25.7 20.2H23.3V17.8C23.3 17.62 23.18 17.5 23 17.5C22.82 17.5 22.7 17.62 22.7 17.8V20.2H20.3C20.12 20.2 20 20.32 20 20.5C20 20.68 20.12 20.8 20.3 20.8H22.7V23.2Z"/>
</mask>
<path fill-rule="evenodd" clip-rule="evenodd" d="M22.7 23.2C22.7 23.38 22.82 23.5 23 23.5C23.18 23.5 23.3 23.38 23.3 23.2V20.8H25.7C25.88 20.8 26 20.68 26 20.5C26 20.32 25.88 20.2 25.7 20.2H23.3V17.8C23.3 17.62 23.18 17.5 23 17.5C22.82 17.5 22.7 17.62 22.7 17.8V20.2H20.3C20.12 20.2 20 20.32 20 20.5C20 20.68 20.12 20.8 20.3 20.8H22.7V23.2Z" fill="#FFFFFF"/>
<path d="M23.3 20.8V20.3H22.8V20.8H23.3ZM23.3 20.2H22.8V20.7H23.3V20.2ZM22.7 20.2V20.7H23.2V20.2H22.7ZM22.7 20.8H23.2V20.3H22.7V20.8ZM23 23C23.0236 23 23.0822 23.0101 23.1361 23.0639C23.1899 23.1178 23.2 23.1764 23.2 23.2H22.2C22.2 23.4036 22.2701 23.6122 22.4289 23.7711C22.5878 23.9299 22.7964 24 23 24V23ZM22.8 23.2C22.8 23.1764 22.8101 23.1178 22.8639 23.0639C22.9178 23.0101 22.9764 23 23 23V24C23.2036 24 23.4122 23.9299 23.5711 23.7711C23.7299 23.6122 23.8 23.4036 23.8 23.2H22.8ZM22.8 20.8V23.2H23.8V20.8H22.8ZM25.7 20.3H23.3V21.3H25.7V20.3ZM25.5 20.5C25.5 20.4764 25.5101 20.4178 25.5639 20.3639C25.6178 20.3101 25.6764 20.3 25.7 20.3V21.3C25.9036 21.3 26.1122 21.2299 26.2711 21.0711C26.4299 20.9122 26.5 20.7036 26.5 20.5H25.5ZM25.7 20.7C25.6764 20.7 25.6178 20.6899 25.5639 20.6361C25.5101 20.5822 25.5 20.5236 25.5 20.5H26.5C26.5 20.2964 26.4299 20.0878 26.2711 19.9289C26.1122 19.7701 25.9036 19.7 25.7 19.7V20.7ZM23.3 20.7H25.7V19.7H23.3V20.7ZM22.8 17.8V20.2H23.8V17.8H22.8ZM23 18C22.9764 18 22.9178 17.9899 22.8639 17.9361C22.8101 17.8822 22.8 17.8236 22.8 17.8H23.8C23.8 17.5964 23.7299 17.3878 23.5711 17.2289C23.4122 17.0701 23.2036 17 23 17V18ZM23.2 17.8C23.2 17.8236 23.1899 17.8822 23.1361 17.9361C23.0822 17.9899 23.0236 18 23 18V17C22.7964 17 22.5878 17.0701 22.4289 17.2289C22.2701 17.3878 22.2 17.5964 22.2 17.8H23.2ZM23.2 20.2V17.8H22.2V20.2H23.2ZM20.3 20.7H22.7V19.7H20.3V20.7ZM20.5 20.5C20.5 20.5236 20.4899 20.5822 20.4361 20.6361C20.3822 20.6899 20.3236 20.7 20.3 20.7V19.7C20.0964 19.7 19.8878 19.7701 19.7289 19.9289C19.5701 20.0878 19.5 20.2964 19.5 20.5H20.5ZM20.3 20.3C20.3236 20.3 20.3822 20.3101 20.4361 20.3639C20.4899 20.4178 20.5 20.4764 20.5 20.5H19.5C19.5 20.7036 19.5701 20.9122 19.7289 21.0711C19.8878 21.2299 20.0964 21.3 20.3 21.3V20.3ZM22.7 20.3H20.3V21.3H22.7V20.3ZM23.2 23.2V20.8H22.2V23.2H23.2Z" fill="#FFFFFF" mask="url(#path-2-outside-1_30_148)"/>
</svg>
