<svg width="20" height="20" viewBox="0 0 20 20" fill="none" xmlns="http://www.w3.org/2000/svg">
<path opacity="0.75" d="M10 17.5C5.864 17.5 2.5 14.136 2.5 10C2.5 5.864 5.864 2.5 10 2.5C14.136 2.5 17.5 5.864 17.5 10C17.5 14.136 14.136 17.5 10 17.5Z" fill="#333333"/>
<path fill-rule="evenodd" clip-rule="evenodd" d="M1 10C1 14.9644 5.03557 19 10 19C14.9644 19 19 14.9644 19 10C19 5.03557 14.9644 1 10 1C5.03557 1 1 5.03557 1 10ZM4.15506 14.6951C3.12006 13.4091 2.5 11.7757 2.5 10C2.5 5.864 5.864 2.5 10 2.5C14.136 2.5 17.5 5.864 17.5 10C17.5 14.136 14.136 17.5 10 17.5C8.23382 17.5 6.60842 16.8866 5.32562 15.8615L12.3477 8.83944L12.3477 12.597C12.3477 13.0539 12.717 13.4231 13.1739 13.4231C13.6308 13.4231 14 13.0539 14 12.597L14 5.99997H7.40297C6.94667 5.99938 6.57684 6.36922 6.57684 6.8261C6.57684 7.28299 6.94608 7.65224 7.40297 7.65224L11.1973 7.65282L4.15506 14.6951Z" fill="white"/>
</svg>
