<svg width="32" height="32" viewBox="0 0 32 32" fill="none" xmlns="http://www.w3.org/2000/svg">
<path fill-rule="evenodd" clip-rule="evenodd" d="M17.935 13.6115C17.9823 13.7074 18.0736 13.7735 18.1785 13.789L21.9655 14.339C22.2311 14.3779 22.3373 14.7043 22.1449 14.8915L19.4048 17.5623C19.3284 17.6368 19.2934 17.7437 19.3115 17.8493L19.9586 21.6207C20.004 21.885 19.7261 22.0871 19.489 21.9621L19.1151 21.7654L16.1024 20.1813C16.0078 20.1314 15.8951 20.1314 15.8012 20.1813L12.4146 21.9621C12.1769 22.0871 11.899 21.885 11.945 21.6207L12.5921 17.8493C12.6102 17.7444 12.5753 17.6368 12.4988 17.5623L9.75871 14.8915C9.56502 14.7043 9.67126 14.3779 9.93685 14.339L13.7238 13.789C13.8294 13.7735 13.9207 13.7074 13.9673 13.6115L15.4736 10.5593L15.6606 10.1802C15.7798 9.93992 16.1231 9.93992 16.2417 10.1802L17.935 13.6115ZM17.5869 9.51669L19.0066 12.3935L22.1827 12.8548C23.6734 13.073 24.2772 14.9083 23.1919 15.9657L23.191 15.9666L20.8945 18.205L21.437 21.367C21.692 22.8532 20.1311 23.9958 18.7899 23.2892L15.9518 21.7968L13.1128 23.2897C11.7771 23.992 10.2087 22.8592 10.4668 21.3658L10.4672 21.3635L11.0091 18.205L8.71623 15.9701L8.71317 15.9671C7.62378 14.9096 8.22911 13.0729 9.71965 12.8548L12.8957 12.3935L14.3168 9.51377C14.9857 8.16519 16.9167 8.15832 17.5869 9.51669Z" fill="#333333"/>
</svg>
