<svg width="32" height="32" viewBox="0 0 32 32" fill="none" xmlns="http://www.w3.org/2000/svg">
<path fill-rule="evenodd" clip-rule="evenodd" d="M17.5869 9.51669L19.0066 12.3935L22.1827 12.8548C23.6734 13.073 24.2772 14.9083 23.1919 15.9657L23.191 15.9666L20.8945 18.205L21.437 21.367C21.692 22.8532 20.1311 23.9958 18.7899 23.2892L15.9518 21.7968L13.1128 23.2897C11.7771 23.992 10.2087 22.8592 10.4668 21.3658L10.4672 21.3635L11.0091 18.205L8.71623 15.9701L8.71317 15.9671C7.62378 14.9096 8.22911 13.0729 9.71965 12.8548L12.8957 12.3935L14.3168 9.51377C14.9857 8.16519 16.9167 8.15832 17.5869 9.51669Z" fill="#333333"/>
</svg>
