<svg width="22" height="18" viewBox="0 0 22 18" fill="none" xmlns="http://www.w3.org/2000/svg">
<path opacity="0.75" fill-rule="evenodd" clip-rule="evenodd" d="M16 18C19.3137 18 22 15.3137 22 12C22 8.68629 19.3137 6 16 6C12.6863 6 10 8.68629 10 12C10 15.3137 12.6863 18 16 18ZM19.2498 11.25C19.664 11.25 19.9998 11.5858 19.9998 12C19.9998 12.4142 19.664 12.75 19.2498 12.75H16.75V15.25C16.75 15.6642 16.4142 16 16 16C15.5858 16 15.25 15.6642 15.25 15.25V12.75H12.7498C12.3355 12.75 11.9998 12.4142 11.9998 12C11.9998 11.5858 12.3355 11.25 12.7498 11.25H15.25V8.75003C15.25 8.33582 15.5858 8.00003 16 8.00003C16.4142 8.00003 16.75 8.33582 16.75 8.75003V11.25H19.2498Z" fill="#333333"/>
<path fill-rule="evenodd" clip-rule="evenodd" d="M1 0C0.447715 0 0 0.447715 0 1V6C0 6.55228 0.447715 7 1 7H11.101C12.3636 5.76281 14.0927 5 16 5C16.3395 5 16.6734 5.02417 17 5.07089V1C17 0.447715 16.5523 0 16 0H1Z" fill="#333333"/>
<path fill-rule="evenodd" clip-rule="evenodd" d="M9.67363 9H1C0.447715 9 0 9.44772 0 10V11C0 11.5523 0.447715 12 1 12H9C9 10.9264 9.24169 9.90926 9.67363 9ZM9.28988 14H1C0.447715 14 0 14.4477 0 15C0 15.5523 0.447715 16 1 16H10.2547C9.83338 15.396 9.50489 14.7224 9.28988 14Z" fill="#333333"/>
</svg>
