<svg width="24" height="21" viewBox="0 0 24 21" fill="none" xmlns="http://www.w3.org/2000/svg">
<path fill-rule="evenodd" clip-rule="evenodd" d="M7.66452 0C8.17734 0 8.59355 0.416207 8.59355 0.929032V15.3718C8.59355 15.4712 8.41517 15.5251 8.34735 15.4535C8.09652 15.1878 7.63479 14.8645 6.87484 14.8645H0.18209C0.0798969 14.8645 0 14.7809 0 14.6787V0.185806C0 0.0836127 0.0836127 0 0.185806 0H7.66452ZM1.84041 4.62751C2.12655 4.34137 2.56599 4.34137 2.85213 4.62751L4.18065 5.95603L5.50916 4.62751C5.7953 4.34137 6.23474 4.34137 6.52088 4.62751C6.80702 4.91365 6.80702 5.35308 6.52088 5.63923L5.19236 6.96774L6.52088 8.29626C6.80702 8.5824 6.80702 9.02183 6.52088 9.30797C6.45677 9.37208 6.38524 9.42782 6.29791 9.46684C6.20965 9.50586 6.11675 9.52258 6.01456 9.52258C5.86126 9.52258 5.65316 9.45197 5.50916 9.30797L4.18065 7.97946L2.85213 9.30797C2.78803 9.37208 2.71649 9.42782 2.62916 9.46684C2.5409 9.50586 2.448 9.52258 2.34581 9.52258C2.19252 9.52258 1.98441 9.45197 1.84041 9.30797C1.55427 9.02183 1.55427 8.5824 1.84041 8.29626L3.16893 6.96774L1.84041 5.63923C1.55427 5.35308 1.55427 4.91365 1.84041 4.62751Z" fill="#333333"/>
<path fill-rule="evenodd" clip-rule="evenodd" d="M10.9158 0C10.403 0 9.98682 0.416207 9.98682 0.929032V15.3718C9.98682 15.4712 10.1652 15.5251 10.233 15.4535C10.4838 15.1878 10.9456 14.8645 11.7055 14.8645H18.3973C18.5005 14.8645 18.5804 14.7809 18.5804 14.6787V0.185806C18.5804 0.0836127 18.4968 0 18.3946 0H10.9158ZM13.3062 9.39716L11.3636 7.32635C11.0775 7.0207 11.0775 6.55804 11.3636 6.25239C11.6581 5.93837 12.1171 5.93837 12.4116 6.25239L13.3062 7.2065L15.9243 4.41662C16.2188 4.10261 16.6777 4.10261 16.9722 4.41662C17.2584 4.72227 17.2584 5.18493 16.9722 5.49058L13.3062 9.39716Z" fill="#333333"/>
<path d="M8.59355 17.9711C8.59355 16.768 7.61899 15.7935 6.4159 15.7935H0.185806C0.0836127 15.7935 0 15.8771 0 15.9793V17.9302C0 18.0334 0.0836127 18.116 0.185806 18.116H8.44862C8.52852 18.116 8.59355 18.051 8.59355 17.9711Z" fill="#333333"/>
<path d="M9.98682 17.9711C9.98682 16.768 10.9614 15.7935 12.1645 15.7935H18.3946C18.4977 15.7935 18.5804 15.8771 18.5804 15.9793V17.9302C18.5804 18.0334 18.4968 18.116 18.3946 18.116H10.1317C10.0518 18.116 9.98682 18.051 9.98682 17.9711Z" fill="#333333"/>
<path d="M18.5812 19.3548C21.1466 19.3548 23.2264 17.2751 23.2264 14.7096C23.2264 12.1442 21.1466 10.0645 18.5812 10.0645C16.0157 10.0645 13.936 12.1442 13.936 14.7096C13.936 17.2751 16.0157 19.3548 18.5812 19.3548Z" fill="#6D6F71"/>
<path fill-rule="evenodd" clip-rule="evenodd" d="M24.0003 14.7094C24.0003 17.7024 21.574 20.1287 18.581 20.1287C15.5879 20.1287 13.1616 17.7024 13.1616 14.7094C13.1616 11.7164 15.5879 9.29004 18.581 9.29004C21.574 9.29004 24.0003 11.7164 24.0003 14.7094ZM23.2261 14.7094C23.2261 17.2748 21.1464 19.3546 18.581 19.3546C16.0155 19.3546 13.9358 17.2748 13.9358 14.7094C13.9358 12.1439 16.0155 10.0642 18.581 10.0642C21.1464 10.0642 23.2261 12.1439 23.2261 14.7094Z" fill="white"/>
<path d="M17.8042 16.7585L16.3197 15.2741C16.0855 15.0398 16.0855 14.6609 16.3197 14.4267C16.554 14.1924 16.9329 14.1924 17.1671 14.4267L17.8055 15.065L20.0352 12.8354C20.2694 12.6011 20.6484 12.6011 20.8826 12.8354C21.1169 13.0696 21.1169 13.4485 20.8826 13.6828L17.8042 16.7585Z" fill="white"/>
</svg>
