<svg id="measures" xmlns="http://www.w3.org/2000/svg" viewBox="0 0 26 26"><defs><style>.cls-1{fill:#757575;}.cls-2{fill:#fff;}.cls-3{fill:none;}.cls-4{fill:#666;}</style></defs><title>specifications - forms - CUX2</title><path class="cls-1" d="M20,21.833H6a2.006,2.006,0,0,1-2-2v-14a2.006,2.006,0,0,1,2-2H20a2.006,2.006,0,0,1,2,2v14A2.006,2.006,0,0,1,20,21.833Z"/><path class="cls-2" d="M11.1,17.633l-3.5-3.5a0.99,0.99,0,1,1,1.4-1.4l2.1,2.1,5.5-5.5a0.99,0.99,0,0,1,1.4,1.4Z"/><rect class="cls-3" x="2" y="2" width="22" height="22" rx="4" ry="4"/><path class="cls-4" d="M20,0H6A6.007,6.007,0,0,0,0,6V20a6.007,6.007,0,0,0,6,6H20a6.007,6.007,0,0,0,6-6V6A6.007,6.007,0,0,0,20,0Zm4,20a4,4,0,0,1-4,4H6a4,4,0,0,1-4-4V6A4,4,0,0,1,6,2H20a4,4,0,0,1,4,4V20Z"/></svg>