<?xml version="1.0" standalone="no"?>
<!DOCTYPE svg PUBLIC "-//W3C//DTD SVG 20010904//EN"
 "http://www.w3.org/TR/2001/REC-SVG-20010904/DTD/svg10.dtd">
<svg version="1.0" xmlns="http://www.w3.org/2000/svg"
 width="371.000000pt" height="365.000000pt" viewBox="0 0 371.000000 365.000000"
 preserveAspectRatio="xMidYMid meet">

<g transform="translate(0.000000,365.000000) scale(0.100000,-0.100000)"
fill="#000000" stroke="none">
<path d="M371 3392 c-19 -10 -43 -34 -53 -53 -17 -32 -18 -100 -18 -1529 0
-1429 1 -1497 18 -1529 38 -70 44 -71 445 -71 396 0 410 2 447 62 20 33 20 46
20 1538 0 1492 0 1505 -20 1538 -37 60 -51 62 -447 62 -328 0 -361 -2 -392
-18z"/>
<path d="M1503 3391 c-18 -11 -40 -32 -50 -48 -17 -26 -18 -100 -21 -1511 -1
-963 1 -1497 8 -1521 5 -20 24 -50 40 -66 l31 -30 389 0 388 0 27 25 c58 53
55 -36 55 1570 0 1606 3 1517 -55 1570 l-27 25 -376 3 c-360 2 -378 1 -409
-17z"/>
<path d="M2643 3395 c-18 -8 -42 -29 -53 -47 -20 -33 -20 -47 -20 -1538 0
-1492 0 -1505 20 -1538 37 -60 51 -62 447 -62 401 0 407 1 445 71 17 32 18
100 18 1529 0 1429 -1 1497 -18 1529 -38 70 -44 71 -447 71 -286 -1 -367 -4
-392 -15z"/>
</g>
</svg>
