<?xml version="1.0" encoding="utf-8"?>
<!-- Generator: Adobe Illustrator 21.0.2, SVG Export Plug-In . SVG Version: 6.00 Build 0)  -->
<svg version="1.1" id="Layer_1" xmlns="http://www.w3.org/2000/svg" xmlns:xlink="http://www.w3.org/1999/xlink" x="0px" y="0px"
	 viewBox="0 0 24 24" style="enable-background:new 0 0 24 24;" xml:space="preserve">
<style type="text/css">
	.st0{fill:#8CA9BD;}
</style>
<title>Asset 1</title>
<g id="Layer_2">
	<g id="titles">
		<path class="st0" d="M21,4.5c-0.828,0-1.5-0.672-1.5-1.5s0.672-1.5,1.5-1.5s1.5,0.672,1.5,1.5S21.828,4.5,21,4.5"/>
		<path class="st0" d="M15,4.5c-0.828,0-1.5-0.672-1.5-1.5s0.672-1.5,1.5-1.5s1.5,0.672,1.5,1.5S15.828,4.5,15,4.5"/>
		<path class="st0" d="M21,10.5c-0.828,0-1.5-0.672-1.5-1.5s0.672-1.5,1.5-1.5s1.5,0.672,1.5,1.5S21.828,10.5,21,10.5"/>
		<path class="st0" d="M15,10.5c-0.828,0-1.5-0.672-1.5-1.5s0.672-1.5,1.5-1.5s1.5,0.672,1.5,1.5S15.828,10.5,15,10.5"/>
		<path class="st0" d="M21,16.5c-0.828,0-1.5-0.672-1.5-1.5s0.672-1.5,1.5-1.5s1.5,0.672,1.5,1.5S21.828,16.5,21,16.5"/>
		<path class="st0" d="M15,16.5c-0.828,0-1.5-0.672-1.5-1.5s0.672-1.5,1.5-1.5s1.5,0.672,1.5,1.5S15.828,16.5,15,16.5"/>
		<path class="st0" d="M21,22.5c-0.828,0-1.5-0.672-1.5-1.5s0.672-1.5,1.5-1.5s1.5,0.672,1.5,1.5S21.828,22.5,21,22.5"/>
		<path class="st0" d="M15,22.5c-0.828,0-1.5-0.672-1.5-1.5s0.672-1.5,1.5-1.5s1.5,0.672,1.5,1.5S15.828,22.5,15,22.5"/>
	</g>
</g>
</svg>
