<svg width="16" height="16" viewBox="0 0 16 16" fill="none" xmlns="http://www.w3.org/2000/svg">
<circle cx="8" cy="8" r="7.25" fill="white" stroke="#2E3D98" stroke-width="1.5"/>
<path d="M11.3333 7.21905H8.66667V4.55238C8.66667 4.15238 8.4 3.88572 8 3.88572C7.6 3.88572 7.33333 4.15238 7.33333 4.55238V7.21905H4.66667C4.26667 7.21905 4 7.48572 4 7.88572C4 8.28572 4.26667 8.55238 4.66667 8.55238H7.33333V11.219C7.33333 11.619 7.6 11.8857 8 11.8857C8.4 11.8857 8.66667 11.619 8.66667 11.219V8.55238H11.3333C11.7333 8.55238 12 8.28572 12 7.88572C12 7.48572 11.7333 7.21905 11.3333 7.21905Z" fill="#2E3D98" stroke="#2E3D98" stroke-width="0.5"/>
</svg>
