<svg width="24" height="24" viewBox="0 0 24 24" fill="none" xmlns="http://www.w3.org/2000/svg">
<circle cx="12" cy="12" r="12" fill="#333333"/>
<path d="M13.7722 15.2096C13.4233 15.5907 13.0295 15.9011 12.5907 16.1407C12.1632 16.3802 11.6062 16.5 10.9198 16.5C10.526 16.5 10.1491 16.451 9.78903 16.353C9.44022 16.255 9.1308 16.1025 8.86076 15.8956C8.60197 15.6887 8.39381 15.4274 8.23629 15.1116C8.07876 14.7849 8 14.3984 8 13.9519C8 13.3639 8.13502 12.8848 8.40506 12.5145C8.67511 12.1443 9.02954 11.8557 9.46835 11.6488C9.90717 11.4419 10.3966 11.2949 10.9367 11.2078C11.488 11.1207 12.045 11.0662 12.6076 11.0445L13.7384 10.9955V10.5708C13.7384 10.0481 13.5865 9.68875 13.2827 9.49274C12.9902 9.29673 12.6414 9.19873 12.2363 9.19873C11.3024 9.19873 10.7679 9.54174 10.6329 10.2278L8.47257 10.0318C8.6301 9.13884 9.03516 8.49637 9.68776 8.10436C10.3404 7.70145 11.218 7.5 12.3207 7.5C12.9958 7.5 13.5696 7.58167 14.0422 7.74501C14.5148 7.89746 14.8917 8.12069 15.173 8.4147C15.4655 8.70871 15.6737 9.06806 15.7975 9.49274C15.9325 9.90653 16 10.3748 16 10.8975V16.2877H13.7722V15.2096ZM13.7215 12.4819L12.6751 12.5309C12.18 12.5526 11.7806 12.6016 11.4768 12.6779C11.173 12.7541 10.9367 12.8521 10.7679 12.9719C10.6104 13.0808 10.5035 13.2114 10.4473 13.3639C10.391 13.5163 10.3629 13.6851 10.3629 13.8702C10.3629 14.1534 10.4641 14.3766 10.6667 14.5399C10.8692 14.7033 11.1505 14.7849 11.5105 14.7849C12.1181 14.7849 12.6132 14.6488 12.9958 14.3766C13.2096 14.2241 13.384 14.0336 13.519 13.8049C13.654 13.5653 13.7215 13.2713 13.7215 12.9229V12.4819Z" fill="white"/>
</svg>
