<svg width="32" height="32" fill="none" xmlns="http://www.w3.org/2000/svg"><path fill-rule="evenodd" clip-rule="evenodd" d="M22.743 14.527a.963.963 0 01-.955.972h-5.254v-5.343c0-.536.428-.97.956-.97.527 0 .955.434.955.97v3.4h3.343c.527 0 .955.435.955.971z" fill="#333"/><path fill-rule="evenodd" clip-rule="evenodd" d="M17.77 14.243a.983.983 0 010-1.374l4.1-4.086a.944.944 0 011.35 0 .983.983 0 010 1.373l-4.1 4.087a.944.944 0 01-1.35 0zM9.257 17.473c0-.537.428-.971.955-.971h5.254v5.341a.963.963 0 01-.955.972.963.963 0 01-.956-.972v-3.399h-3.343a.963.963 0 01-.955-.971z" fill="#333"/><path fill-rule="evenodd" clip-rule="evenodd" d="M14.23 17.757a.983.983 0 010 1.374l-4.1 4.086a.944.944 0 01-1.35 0 .983.983 0 010-1.373l4.1-4.087a.944.944 0 011.35 0z" fill="#333"/></svg>