<svg width="32" height="32" fill="none" xmlns="http://www.w3.org/2000/svg"><circle cx="16" cy="16" r="14" fill="#F3FBFF"/><path fill-rule="evenodd" clip-rule="evenodd" d="M22.532 14.627c0 .536-.422.971-.943.971h-5.187v-5.342c0-.536.422-.971.943-.971.52 0 .943.435.943.971v3.4h3.3c.522 0 .944.434.944.97z" fill="#627783"/><path fill-rule="evenodd" clip-rule="evenodd" d="M17.621 14.342a.992.992 0 010-1.373l4.049-4.087a.924.924 0 011.333 0 .992.992 0 010 1.374l-4.048 4.086a.924.924 0 01-1.334 0zM9.503 17.334c0-.536.422-.971.943-.971h5.187v5.342c0 .536-.423.971-.943.971-.521 0-.944-.435-.944-.971v-3.4h-3.3c-.521 0-.943-.434-.943-.97z" fill="#627783"/><path fill-rule="evenodd" clip-rule="evenodd" d="M14.413 17.619a.992.992 0 010 1.373l-4.048 4.086a.924.924 0 01-1.334 0 .992.992 0 010-1.373l4.049-4.086a.924.924 0 011.333 0z" fill="#627783"/></svg>