<svg width="24" height="24" viewBox="0 0 24 24" fill="none" xmlns="http://www.w3.org/2000/svg">
<g clip-path="url(#clip0)">
<circle cx="12" cy="12" r="12" fill="#333333"/>
<path d="M8.66517 15.489C8.41347 15.7767 8.1293 16.011 7.81265 16.1918C7.50412 16.3726 7.10221 16.463 6.60694 16.463C6.32277 16.463 6.05077 16.426 5.79096 16.3521C5.53926 16.2781 5.31598 16.163 5.12112 16.0068C4.93438 15.8507 4.78417 15.6534 4.6705 15.4151C4.55683 15.1685 4.5 14.8767 4.5 14.5397C4.5 14.0959 4.59743 13.7342 4.79229 13.4548C4.98715 13.1753 5.24291 12.9575 5.55956 12.8014C5.87621 12.6452 6.2294 12.5342 6.61912 12.4685C7.01696 12.4027 7.41886 12.3616 7.82483 12.3452L8.64081 12.3082V11.9877C8.64081 11.5931 8.5312 11.3219 8.31198 11.174C8.10088 11.026 7.84918 10.9521 7.55689 10.9521C6.883 10.9521 6.49733 11.211 6.3999 11.7288L4.84101 11.5808C4.95468 10.9068 5.24697 10.4219 5.71789 10.126C6.1888 9.82192 6.8221 9.66986 7.61779 9.66986C8.10494 9.66986 8.51902 9.73151 8.86003 9.85479C9.20104 9.96986 9.47303 10.1384 9.67601 10.3603C9.88711 10.5822 10.0373 10.8534 10.1266 11.174C10.2241 11.4863 10.2728 11.8397 10.2728 12.2342V16.3027H8.66517V15.489ZM8.62863 13.4301L7.87354 13.4671C7.5163 13.4836 7.22806 13.5205 7.00884 13.5781C6.78962 13.6356 6.61912 13.7096 6.49733 13.8C6.38366 13.8822 6.30653 13.9808 6.26593 14.0959C6.22534 14.211 6.20504 14.3384 6.20504 14.4781C6.20504 14.6918 6.27811 14.8603 6.42426 14.9836C6.57041 15.1068 6.77339 15.1685 7.0332 15.1685C7.47164 15.1685 7.82889 15.0658 8.10494 14.8603C8.25921 14.7452 8.38505 14.6014 8.48248 14.4288C8.57992 14.2479 8.62863 14.026 8.62863 13.763V13.4301Z" fill="white"/>
<path d="M10.8563 14.3178H12.5979V16.3027H10.8563V14.3178Z" fill="white"/>
<path d="M13.2035 7.5H14.9086V10.6438C15.3876 9.99452 16.0371 9.66986 16.8572 9.66986C17.7422 9.66986 18.4039 9.97397 18.8423 10.5822C19.2808 11.1904 19.5 12.0247 19.5 13.0849C19.5 13.5945 19.435 14.0589 19.3051 14.4781C19.1833 14.8973 19.0007 15.2589 18.7571 15.563C18.5216 15.8589 18.2334 16.089 17.8924 16.2534C17.5514 16.4178 17.1657 16.5 16.7354 16.5C16.3944 16.5 16.0656 16.4342 15.7489 16.3027C15.4323 16.1712 15.1359 15.9329 14.8599 15.5877V16.3027H13.2035V7.5ZM14.8964 13.1342C14.8964 13.5534 14.9289 13.8904 14.9938 14.1452C15.0669 14.3918 15.1806 14.5932 15.3348 14.7493C15.4972 14.8973 15.6596 14.9959 15.822 15.0452C15.9925 15.0863 16.163 15.1068 16.3335 15.1068C16.5202 15.1068 16.6989 15.0699 16.8694 14.9959C17.0399 14.9219 17.186 14.8068 17.3078 14.6507C17.4377 14.4863 17.5392 14.2767 17.6123 14.0219C17.6854 13.7671 17.7219 13.4589 17.7219 13.0973C17.7219 12.7192 17.6854 12.4027 17.6123 12.1479C17.5473 11.8931 17.454 11.6877 17.3322 11.5315C17.2104 11.3671 17.0642 11.2521 16.8937 11.1863C16.7313 11.1123 16.5568 11.0753 16.37 11.0753C16.1589 11.0753 15.9763 11.1041 15.822 11.1616C15.6677 11.2192 15.5175 11.3096 15.3714 11.4329C15.209 11.589 15.0872 11.7863 15.006 12.0247C14.9329 12.263 14.8964 12.5671 14.8964 12.937V13.1342Z" fill="white"/>
</g>
<defs>
<clipPath id="clip0">
<rect width="24" height="24" fill="white"/>
</clipPath>
</defs>
</svg>
