<svg width="24" height="24" viewBox="0 0 24 24" fill="none" xmlns="http://www.w3.org/2000/svg">
<circle cx="12" cy="12" r="12" fill="#333333"/>
<path d="M14.2081 7.49988H17.4346C18.0958 7.49988 18.6398 7.56289 19.0666 7.68891C19.5018 7.81494 19.845 7.98717 20.0961 8.20561C20.3472 8.42406 20.5187 8.6803 20.6108 8.97436C20.7112 9.26842 20.7614 9.58768 20.7614 9.93214C20.7614 10.285 20.6861 10.6169 20.5355 10.9277C20.3848 11.2386 20.1003 11.5032 19.6818 11.7217C19.9496 11.8645 20.1672 12.0157 20.3346 12.1754C20.5104 12.3266 20.6443 12.4904 20.7363 12.6669C20.8368 12.8433 20.9037 13.0239 20.9372 13.2088C20.979 13.3936 21 13.5784 21 13.7633C21 14.1414 20.9414 14.4984 20.8242 14.8345C20.7154 15.1706 20.5271 15.4604 20.2593 15.7041C19.9998 15.9477 19.6567 16.1409 19.2298 16.2838C18.803 16.4266 18.2757 16.498 17.648 16.498H14.2081V7.49988ZM17.648 11.0664C18.1418 11.0664 18.4808 10.9739 18.6649 10.7891C18.849 10.6043 18.9411 10.3396 18.9411 9.99516C18.9411 9.62549 18.8197 9.36504 18.577 9.21381C18.3427 9.05418 17.9409 8.97436 17.3718 8.97436H16.0159V11.0664H17.648ZM17.5852 15.0235C17.8949 15.0235 18.1502 14.9941 18.351 14.9353C18.5603 14.8765 18.7277 14.7925 18.8532 14.6833C18.9787 14.5656 19.0666 14.4312 19.1168 14.28C19.1671 14.1288 19.1922 13.9565 19.1922 13.7633C19.1922 13.3768 19.0875 13.0828 18.8783 12.8811C18.6691 12.6795 18.3008 12.5787 17.7735 12.5787H16.0159V15.0235H17.5852Z" fill="white"/>
<path d="M11.9663 14.4711H13.8194V16.5001H11.9663V14.4711Z" fill="white"/>
<path d="M6.36454 7.50195H8.14724L11.5118 16.5001H9.5031L8.7875 14.4207H5.64894L4.93335 16.5001H3L6.36454 7.50195ZM8.29789 12.8706L7.20567 9.64436L6.12601 12.8706H8.29789Z" fill="white"/>
</svg>
