<svg width="24" height="24" viewBox="0 0 24 24" fill="none" xmlns="http://www.w3.org/2000/svg">
<circle cx="12" cy="12" r="12" fill="#333333"/>
<path d="M7.51841 9.79437L5.7926 10.8211L5 9.51549L7.82522 7.74084H9.34649V16.5H7.51841V9.79437Z" fill="white"/>
<path d="M10.1611 14.4592H11.9892V16.5H10.1611V14.4592Z" fill="white"/>
<path d="M12.6848 15.169C13.0513 14.8479 13.4135 14.5437 13.7714 14.2563C14.1294 13.9606 14.4916 13.6521 14.8581 13.331C15.216 13.0183 15.5271 12.7352 15.7913 12.4817C16.064 12.2282 16.2898 11.9831 16.4688 11.7465C16.6478 11.5099 16.7799 11.2775 16.8651 11.0493C16.9589 10.8127 17.0057 10.5549 17.0057 10.2761C17.0057 9.91268 16.8992 9.6169 16.6861 9.38873C16.4816 9.15211 16.2003 9.0338 15.8424 9.0338C15.4163 9.0338 15.0796 9.13099 14.8325 9.32535C14.5939 9.51127 14.4149 9.87042 14.2956 10.4028L12.557 10.2C12.6337 9.83662 12.7445 9.49437 12.8893 9.17324C13.0342 8.84366 13.2302 8.55634 13.4774 8.31127C13.7331 8.05775 14.0527 7.85915 14.4362 7.71549C14.8197 7.57183 15.2927 7.5 15.8552 7.5C16.8438 7.5 17.5938 7.74084 18.1051 8.22253C18.6165 8.70422 18.8722 9.35916 18.8722 10.1873C18.8722 10.5423 18.8253 10.8718 18.7315 11.1761C18.6463 11.4718 18.5142 11.7634 18.3352 12.0507C18.1563 12.338 17.9262 12.6296 17.6449 12.9254C17.3722 13.2127 17.0441 13.5254 16.6606 13.8634C16.456 14.0324 16.2472 14.2014 16.0342 14.3704C15.8296 14.5394 15.608 14.7338 15.3694 14.9535H19L18.8082 16.5H12.6848V15.169Z" fill="white"/>
</svg>
