<svg version="1.1" id="Layer_1" xmlns="http://www.w3.org/2000/svg" x="0" y="0" viewBox="0 0 24 24" xml:space="preserve"><style>.st1{fill:#fff}</style><path d="M24 12c0 6.6-5.4 12-12 12S0 18.6 0 12 5.4 0 12 0s12 5.4 12 12" fill="#111b58"/><circle class="st1" cx="12.2" cy="16.9" r="1.3"/><path class="st1" d="M14.9 6.6c-.7-.5-1.5-.8-2.7-.8-.6 0-1.2.1-1.7.3-.5.1-.9.4-1.2.7-.3.2-.5.6-.7.9l1.8 1c.1-.3.2-.5.4-.6.3-.2.7-.4 1.3-.4.4 0 .7.1 1 .3.2.2.4.5.4 1 0 .2 0 .4-.1.6-.1.2-.1.3-.2.5-.1.1-.2.3-.3.4l-.4.4c-.2.2-.4.4-.6.5-.2.2-.3.4-.5.6-.1.2-.3.4-.3.7-.1.2-.1.5-.1.8v.4h2.2v-.3c0-.2 0-.4.1-.6.1-.2.2-.4.3-.5.1-.2.3-.4.5-.5l.5-.5.5-.5c.1-.2.3-.3.4-.5.1-.2.2-.4.3-.7.1-.3.1-.6.1-.9-.1-1.1-.4-1.8-1-2.3z"/></svg>