<svg width="28" height="28" viewBox="0 0 28 28" fill="none" xmlns="http://www.w3.org/2000/svg">
<circle cx="14" cy="14" r="14" fill="#627783"/>
<path fill-rule="evenodd" clip-rule="evenodd" d="M9.13226 5H17.3468L17.5067 5.15761L20.7051 8.41847L20.8597 8.58151V20.2174C20.8597 20.7939 20.6351 21.3469 20.2352 21.7545C19.8353 22.1622 19.293 22.3913 18.7274 22.3913H9.13226C8.56675 22.3913 8.0244 22.1622 7.62453 21.7545C7.22465 21.3469 7 20.7939 7 20.2174V7.17391C7 6.59735 7.22465 6.04441 7.62453 5.63672C8.0244 5.22904 8.56675 5 9.13226 5Z" fill="white"/>
<ellipse cx="9.55897" cy="9.34783" rx="0.852913" ry="0.869563" fill="#627783"/>
<path d="M11.6904 9.34779C11.6904 8.98761 11.9824 8.69562 12.3426 8.69562H17.4351C17.7953 8.69562 18.0873 8.98761 18.0873 9.34779C18.0873 9.70797 17.7953 9.99996 17.4351 9.99996H12.3426C11.9824 9.99996 11.6904 9.70797 11.6904 9.34779Z" fill="#627783"/>
<ellipse cx="12.1176" cy="12.8261" rx="0.852913" ry="0.869563" fill="#627783"/>
<path d="M14.25 12.8261C14.25 12.4659 14.542 12.1739 14.9022 12.1739H17.436C17.7961 12.1739 18.0881 12.4659 18.0881 12.8261C18.0881 13.1862 17.7961 13.4782 17.436 13.4782H14.9022C14.542 13.4782 14.25 13.1862 14.25 12.8261Z" fill="#627783"/>
<path d="M16.5 16.3522C16.5 15.992 16.792 15.7 17.1522 15.7H17.4478C17.808 15.7 18.1 15.992 18.1 16.3522C18.1 16.7124 17.808 17.0044 17.4478 17.0044H17.1522C16.792 17.0044 16.5 16.7124 16.5 16.3522Z" fill="#627783"/>
<ellipse cx="14.7269" cy="16.3043" rx="0.852913" ry="0.869563" fill="#627783"/>
</svg>
