<svg width="18" height="21" viewBox="0 0 18 21" fill="none" xmlns="http://www.w3.org/2000/svg">
<path fill-rule="evenodd" clip-rule="evenodd" d="M10.3468 0H2.13226C1.56675 0 1.0244 0.229036 0.624525 0.636723C0.224648 1.04441 0 1.59735 0 2.17391V15.2174C0 15.7939 0.224648 16.3469 0.624525 16.7545C1.0244 17.1622 1.56675 17.3913 2.13226 17.3913H7.77575C7.5273 16.7178 7.39169 15.9854 7.39169 15.2174C7.39169 11.8261 10.0357 9.13043 13.362 9.13043C13.5297 9.13043 13.6957 9.13728 13.8597 9.15073V3.58151L13.7051 3.41847L10.5067 0.157608L10.3468 0Z" fill="#333333"/>
<path opacity="0.75" fill-rule="evenodd" clip-rule="evenodd" d="M13.3453 20.0017C15.9134 20.0017 17.9953 17.8791 17.9953 15.2608C17.9953 12.6426 15.9134 10.52 13.3453 10.52C10.7772 10.52 8.69531 12.6426 8.69531 15.2608C8.69531 17.8791 10.7772 20.0017 13.3453 20.0017ZM14.7161 13.026C14.9431 12.7946 15.3111 12.7946 15.5381 13.026C15.7651 13.2574 15.7651 13.6326 15.5381 13.8641L14.1672 15.2617L15.5364 16.6576C15.7634 16.889 15.7634 17.2643 15.5364 17.4957C15.3094 17.7271 14.9414 17.7271 14.7144 17.4957L13.3452 16.0998L11.9761 17.4957C11.7491 17.7271 11.3811 17.7271 11.1541 17.4957C10.9271 17.2643 10.9271 16.889 11.1541 16.6576L12.5232 15.2617L11.1523 13.8641C10.9254 13.6326 10.9254 13.2574 11.1523 13.026C11.3793 12.7946 11.7474 12.7946 11.9744 13.026L13.3452 14.4237L14.7161 13.026Z" fill="#333333"/>
<ellipse cx="2.55897" cy="4.34783" rx="0.852913" ry="0.869563" fill="white"/>
<path d="M4.69043 4.34779C4.69043 3.98761 4.98242 3.69562 5.3426 3.69562H10.4351C10.7953 3.69562 11.0873 3.98761 11.0873 4.34779C11.0873 4.70797 10.7953 4.99996 10.4351 4.99996H5.3426C4.98242 4.99996 4.69043 4.70797 4.69043 4.34779Z" fill="white"/>
<ellipse cx="5.11756" cy="7.82611" rx="0.852913" ry="0.869563" fill="white"/>
<path d="M7.25 7.82606C7.25 7.46588 7.54199 7.17389 7.90217 7.17389H10.436C10.7961 7.17389 11.0881 7.46588 11.0881 7.82606C11.0881 8.18625 10.7961 8.47823 10.436 8.47823H7.90217C7.54199 8.47823 7.25 8.18625 7.25 7.82606Z" fill="#EEF2F4"/>
<ellipse cx="7.72694" cy="11.3043" rx="0.852913" ry="0.869563" fill="white"/>
</svg>
