<svg width="32" height="18" viewBox="0 0 32 18" fill="none" xmlns="http://www.w3.org/2000/svg">
<path fill-rule="evenodd" clip-rule="evenodd" d="M31.2965 11.7929C31.6851 12.1834 31.6851 12.8166 31.2965 13.2071L26.8622 17.6642L22.4278 13.2071C22.0393 12.8166 22.0393 12.1834 22.4278 11.7929C22.8164 11.4024 23.4463 11.4024 23.8348 11.7929L26.8622 14.8358L29.8895 11.7929C30.2781 11.4024 30.908 11.4024 31.2965 11.7929Z" fill="#333333"/>
<g clip-path="url(#clip0)">
<path d="M2.01175 2.45801L0.796743 3.18702L0.238739 2.26001L2.22776 1H3.29876V7.21905H2.01175V2.45801Z" fill="#333333"/>
<path d="M0.0900007 17.055C0.348003 16.827 0.603005 16.611 0.855007 16.407C1.10701 16.197 1.36201 15.978 1.62001 15.75C1.87202 15.528 2.09102 15.327 2.27702 15.147C2.46902 14.967 2.62802 14.793 2.75402 14.625C2.88002 14.457 2.97302 14.292 3.03302 14.13C3.09903 13.962 3.13203 13.779 3.13203 13.581C3.13203 13.323 3.05702 13.113 2.90702 12.951C2.76302 12.783 2.56502 12.699 2.31302 12.699C2.01302 12.699 1.77601 12.768 1.60201 12.906C1.43401 13.038 1.30801 13.293 1.22401 13.671L0 13.527C0.0540004 13.269 0.132001 13.026 0.234002 12.798C0.336003 12.564 0.474004 12.36 0.648005 12.186C0.828007 12.006 1.05301 11.865 1.32301 11.763C1.59301 11.661 1.92602 11.61 2.32202 11.61C3.01802 11.61 3.54603 11.781 3.90603 12.123C4.26603 12.465 4.44604 12.93 4.44604 13.518C4.44604 13.77 4.41304 14.004 4.34704 14.22C4.28703 14.43 4.19403 14.637 4.06803 14.841C3.94203 15.045 3.78003 15.252 3.58203 15.462C3.39003 15.666 3.15903 15.888 2.88902 16.128C2.74502 16.248 2.59802 16.368 2.44802 16.488C2.30402 16.608 2.14802 16.746 1.98002 16.902H4.53604L4.40104 18H0.0900007V17.055Z" fill="#333333"/>
<path fill-rule="evenodd" clip-rule="evenodd" d="M17.9434 6.00003H6.94336V4.50002H17.9434V6.00003Z" fill="#333333"/>
<path fill-rule="evenodd" clip-rule="evenodd" d="M17.9434 17.0001H6.94336V15.5001H17.9434V17.0001Z" fill="#333333"/>
<path fill-rule="evenodd" clip-rule="evenodd" d="M14.9434 3.50002H6.94336V2.00001H14.9434V3.50002Z" fill="#333333"/>
<path fill-rule="evenodd" clip-rule="evenodd" d="M14.9434 14.5001H6.94336V13.0001H14.9434V14.5001Z" fill="#333333"/>
</g>
<defs>
<clipPath id="clip0">
<rect width="17.9081" height="18" fill="white"/>
</clipPath>
</defs>
</svg>
