<svg width="24" height="24" viewBox="0 0 24 24" fill="none" xmlns="http://www.w3.org/2000/svg">
<path fill-rule="evenodd" clip-rule="evenodd" d="M12 22C17.5228 22 22 17.5228 22 12C22 6.47715 17.5228 2 12 2C6.47715 2 2 6.47715 2 12C2 17.5228 6.47715 22 12 22ZM19.7778 12C19.7778 16.2955 16.2955 19.7778 12 19.7778C10.2214 19.7778 8.5822 19.1808 7.27192 18.1762L18.1762 7.27192C19.1808 8.5822 19.7778 10.2214 19.7778 12ZM5.71826 16.5871L16.5871 5.71826C15.3011 4.77756 13.7154 4.22222 12 4.22222C7.70445 4.22222 4.22222 7.70445 4.22222 12C4.22222 13.7154 4.77756 15.3011 5.71826 16.5871Z" fill="#333333"/>
</svg>
