<svg width="24" height="21" viewBox="0 0 24 21" fill="none" xmlns="http://www.w3.org/2000/svg">
<path fill-rule="evenodd" clip-rule="evenodd" d="M7.66452 0C8.17734 0 8.59355 0.416207 8.59355 0.929032V15.3718C8.59355 15.4712 8.41517 15.5251 8.34735 15.4535C8.09652 15.1878 7.63479 14.8645 6.87484 14.8645H0.18209C0.0798969 14.8645 0 14.7809 0 14.6787V0.185806C0 0.0836127 0.0836127 0 0.185806 0H7.66452ZM1.84041 4.62751C2.12655 4.34137 2.56599 4.34137 2.85213 4.62751L4.18065 5.95603L5.50916 4.62751C5.7953 4.34137 6.23474 4.34137 6.52088 4.62751C6.80702 4.91365 6.80702 5.35308 6.52088 5.63923L5.19236 6.96774L6.52088 8.29626C6.80702 8.5824 6.80702 9.02183 6.52088 9.30797C6.45677 9.37208 6.38524 9.42782 6.29791 9.46684C6.20965 9.50586 6.11675 9.52258 6.01456 9.52258C5.86126 9.52258 5.65316 9.45197 5.50916 9.30797L4.18065 7.97946L2.85213 9.30797C2.78803 9.37208 2.71649 9.42782 2.62916 9.46684C2.5409 9.50586 2.448 9.52258 2.34581 9.52258C2.19252 9.52258 1.98441 9.45197 1.84041 9.30797C1.55427 9.02183 1.55427 8.5824 1.84041 8.29626L3.16893 6.96774L1.84041 5.63923C1.55427 5.35308 1.55427 4.91365 1.84041 4.62751Z" fill="#333333"/>
<path fill-rule="evenodd" clip-rule="evenodd" d="M10.9158 0C10.403 0 9.98682 0.416207 9.98682 0.929032V15.3718C9.98682 15.4712 10.1652 15.5251 10.233 15.4535C10.4838 15.1878 10.9456 14.8645 11.7055 14.8645H18.3973C18.5005 14.8645 18.5804 14.7809 18.5804 14.6787V0.185806C18.5804 0.0836127 18.4968 0 18.3946 0H10.9158ZM13.3062 9.39716L11.3636 7.32635C11.0775 7.0207 11.0775 6.55804 11.3636 6.25239C11.6581 5.93837 12.1171 5.93837 12.4116 6.25239L13.3062 7.2065L15.9243 4.41662C16.2188 4.10261 16.6777 4.10261 16.9722 4.41662C17.2584 4.72227 17.2584 5.18493 16.9722 5.49058L13.3062 9.39716Z" fill="#333333"/>
<path d="M8.59355 17.9711C8.59355 16.768 7.61899 15.7935 6.4159 15.7935H0.185806C0.0836127 15.7935 0 15.8771 0 15.9793V17.9302C0 18.0334 0.0836127 18.116 0.185806 18.116H8.44862C8.52852 18.116 8.59355 18.051 8.59355 17.9711Z" fill="#333333"/>
<path d="M9.98682 17.9711C9.98682 16.768 10.9614 15.7935 12.1645 15.7935H18.3946C18.4977 15.7935 18.5804 15.8771 18.5804 15.9793V17.9302C18.5804 18.0334 18.4968 18.116 18.3946 18.116H10.1317C10.0518 18.116 9.98682 18.051 9.98682 17.9711Z" fill="#333333"/>
<path d="M18.5812 19.3548C21.1466 19.3548 23.2264 17.2751 23.2264 14.7096C23.2264 12.1442 21.1466 10.0645 18.5812 10.0645C16.0157 10.0645 13.936 12.1442 13.936 14.7096C13.936 17.2751 16.0157 19.3548 18.5812 19.3548Z" fill="#6D6F71"/>
<path fill-rule="evenodd" clip-rule="evenodd" d="M24.0003 14.7094C24.0003 17.7024 21.574 20.1287 18.581 20.1287C15.5879 20.1287 13.1616 17.7024 13.1616 14.7094C13.1616 11.7164 15.5879 9.29004 18.581 9.29004C21.574 9.29004 24.0003 11.7164 24.0003 14.7094ZM23.2261 14.7094C23.2261 17.2748 21.1464 19.3546 18.581 19.3546C16.0155 19.3546 13.9358 17.2748 13.9358 14.7094C13.9358 12.1439 16.0155 10.0642 18.581 10.0642C21.1464 10.0642 23.2261 12.1439 23.2261 14.7094Z" fill="white"/>
<path d="M20.8297 16.0698L19.2181 14.4917L20.7629 12.9469C20.8089 12.9008 20.8455 12.8461 20.8704 12.786C20.8953 12.7258 20.9081 12.6613 20.9081 12.5962C20.9081 12.531 20.8953 12.4665 20.8704 12.4064C20.8455 12.3462 20.8089 12.2915 20.7629 12.2455C20.7168 12.1994 20.6622 12.1629 20.602 12.138C20.5418 12.113 20.4773 12.1002 20.4122 12.1002C20.347 12.1002 20.2826 12.113 20.2224 12.138C20.1622 12.1629 20.1075 12.1994 20.0615 12.2455L18.4833 13.7568L16.8717 12.1453C16.7787 12.0523 16.6526 12 16.521 12C16.3895 12 16.2633 12.0523 16.1703 12.1453C16.0773 12.2383 16.0251 12.3644 16.0251 12.496C16.0251 12.6275 16.0773 12.7537 16.1703 12.8467L17.8153 14.4917L16.1453 16.1617C16.0992 16.2077 16.0627 16.2624 16.0378 16.3226C16.0128 16.3828 16 16.4472 16 16.5124C16 16.5775 16.0128 16.642 16.0378 16.7022C16.0627 16.7624 16.0992 16.817 16.1453 16.8631C16.1913 16.9091 16.246 16.9457 16.3062 16.9706C16.3663 16.9955 16.4308 17.0084 16.496 17.0084C16.5611 17.0084 16.6256 16.9955 16.6858 16.9706C16.7459 16.9457 16.8006 16.9091 16.8467 16.8631L18.5167 15.1931L20.1533 16.7712C20.1994 16.8173 20.2541 16.8538 20.3142 16.8787C20.3744 16.9037 20.4389 16.9165 20.504 16.9165C20.5692 16.9165 20.6337 16.9037 20.6938 16.8787C20.754 16.8538 20.8087 16.8173 20.8547 16.7712C20.9008 16.7252 20.9373 16.6705 20.9622 16.6103C20.9872 16.5502 21 16.4857 21 16.4205C21 16.3554 20.9872 16.2909 20.9622 16.2307C20.9373 16.1706 20.9008 16.1159 20.8547 16.0698H20.8297Z" fill="white"/>
</svg>
