<svg width="24" height="24" viewBox="0 0 24 24" fill="none" xmlns="http://www.w3.org/2000/svg">
<path d="M12 10.864L9.952 8.8C10.2396 8.31542 10.3941 7.76348 10.4 7.2C10.4 6.5671 10.2123 5.94841 9.8607 5.42218C9.50908 4.89594 9.00931 4.48579 8.42459 4.24359C7.83986 4.00139 7.19645 3.93802 6.57571 4.06149C5.95497 4.18496 5.38479 4.48973 4.93726 4.93726C4.48973 5.38479 4.18496 5.95497 4.06149 6.57571C3.93802 7.19645 4.00139 7.83986 4.24359 8.42459C4.48579 9.00931 4.89594 9.50908 5.42218 9.8607C5.94841 10.2123 6.5671 10.4 7.2 10.4C7.76348 10.3941 8.31542 10.2396 8.8 9.952L10.848 12L8.8 14.048C8.31542 13.7604 7.76348 13.6059 7.2 13.6C6.5671 13.6 5.94841 13.7877 5.42218 14.1393C4.89594 14.4909 4.48579 14.9907 4.24359 15.5754C4.00139 16.1601 3.93802 16.8035 4.06149 17.4243C4.18496 18.045 4.48973 18.6152 4.93726 19.0627C5.38479 19.5103 5.95497 19.815 6.57571 19.9385C7.19645 20.062 7.83986 19.9986 8.42459 19.7564C9.00931 19.5142 9.50908 19.1041 9.8607 18.5778C10.2123 18.0516 10.4 17.4329 10.4 16.8C10.3941 16.2365 10.2396 15.6846 9.952 15.2L12 13.152L16.352 17.568C16.6201 17.8369 16.9396 18.0491 17.2915 18.1921C17.6433 18.335 18.0203 18.4057 18.4 18.4H19.6L13.2 12L12 10.864ZM4.8 7.2C4.8 6.72533 4.94076 6.26131 5.20447 5.86663C5.46819 5.47196 5.84302 5.16434 6.28156 4.98269C6.7201 4.80104 7.20266 4.75351 7.66822 4.84612C8.13377 4.93872 8.56141 5.1673 8.89706 5.50294C9.2327 5.83859 9.46128 6.26623 9.55389 6.73178C9.64649 7.19734 9.59896 7.6799 9.41731 8.11844C9.23566 8.55698 8.92805 8.93181 8.53337 9.19553C8.13869 9.45924 7.67468 9.6 7.2 9.6C6.56348 9.6 5.95303 9.34714 5.50294 8.89706C5.05286 8.44697 4.8 7.83652 4.8 7.2ZM7.2 19.2C6.72533 19.2 6.26131 19.0592 5.86663 18.7955C5.47196 18.5318 5.16434 18.157 4.98269 17.7184C4.80104 17.2799 4.75351 16.7973 4.84612 16.3318C4.93872 15.8662 5.1673 15.4386 5.50294 15.1029C5.83859 14.7673 6.26623 14.5387 6.73178 14.4461C7.19734 14.3535 7.6799 14.401 8.11844 14.5827C8.55698 14.7643 8.93181 15.072 9.19553 15.4666C9.45924 15.8613 9.6 16.3253 9.6 16.8C9.6 17.4365 9.34714 18.047 8.89706 18.4971C8.44697 18.9471 7.83652 19.2 7.2 19.2Z" fill="#333333"/>
<path d="M19.5361 5.60001H18.4001C18.0319 5.59806 17.6669 5.66917 17.3263 5.80924C16.9858 5.94931 16.6764 6.15555 16.4161 6.41602L13.6001 9.26401L14.7361 10.4L19.5361 5.60001Z" fill="#333333"/>
<circle cx="7.15556" cy="7.15556" r="2.15556" stroke="#333333"/>
<circle cx="7.15556" cy="16.8559" r="2.15556" stroke="#333333"/>
</svg>
